<svg xmlns="http://www.w3.org/2000/svg" xmlns:xlink="http://www.w3.org/1999/xlink" width="500" zoomAndPan="magnify" viewBox="0 0 375 374.999991" height="500" preserveAspectRatio="xMidYMid meet" version="1.2"><defs><clipPath id="201c89f6e7"><path d="M 71.914062 78.078125 L 280.414062 78.078125 L 280.414062 286.578125 L 71.914062 286.578125 Z M 71.914062 78.078125 "/></clipPath><clipPath id="2930171465"><path d="M 71.914062 98 L 192 98 L 192 274 L 71.914062 274 Z M 71.914062 98 "/></clipPath><clipPath id="225c4058e8"><path d="M 255 190 L 280.414062 190 L 280.414062 214 L 255 214 Z M 255 190 "/></clipPath><clipPath id="681b55525b"><path d="M 77 61 L 268 61 L 268 285 L 77 285 Z M 77 61 "/></clipPath><clipPath id="4f95ea301f"><path d="M 81.578125 292.945312 L 37.554688 94.519531 L 264.535156 44.160156 L 308.558594 242.585938 Z M 81.578125 292.945312 "/></clipPath><clipPath id="22dbd3a318"><path d="M 81.578125 292.945312 L 37.554688 94.519531 L 264.535156 44.160156 L 308.558594 242.585938 Z M 81.578125 292.945312 "/></clipPath><clipPath id="146cf86cbf"><path d="M 72 137 L 280.414062 137 L 280.414062 187.824219 L 72 187.824219 Z M 72 137 "/></clipPath><clipPath id="5bedc09016"><path d="M 86.839844 185.75 C 86.21875 186.234375 85.445312 186.613281 84.511719 186.878906 C 83.582031 187.144531 82.605469 187.277344 81.582031 187.277344 C 80.609375 187.277344 79.632812 187.167969 78.65625 186.945312 C 77.722656 186.769531 76.925781 186.457031 76.261719 186.015625 C 75.328125 185.394531 74.617188 184.574219 74.128906 183.550781 C 73.644531 182.574219 73.308594 181.554688 73.132812 180.492188 C 72.957031 179.382812 72.820312 178.273438 72.734375 177.164062 C 72.421875 173.257812 72.265625 169.378906 72.265625 165.519531 C 72.265625 161.613281 72.335938 157.710938 72.46875 153.804688 C 72.46875 153.230469 72.488281 152.363281 72.535156 151.210938 C 72.621094 150.058594 72.710938 148.859375 72.800781 147.617188 C 72.933594 146.332031 73.089844 145.132812 73.265625 144.023438 C 73.488281 142.914062 73.730469 142.117188 73.996094 141.628906 C 74.351562 141.007812 74.796875 140.476562 75.328125 140.03125 C 75.90625 139.542969 76.503906 139.144531 77.125 138.832031 C 79.519531 137.769531 82.070312 137.191406 84.777344 137.101562 C 87.484375 137.015625 90.167969 137.082031 92.828125 137.304688 C 93.984375 137.390625 95.136719 137.546875 96.289062 137.769531 C 97.488281 137.945312 98.640625 138.234375 99.75 138.632812 C 101.039062 139.121094 102.234375 139.765625 103.34375 140.5625 C 104.496094 141.363281 105.453125 142.316406 106.207031 143.425781 C 107.003906 144.578125 107.601562 145.84375 108.003906 147.21875 C 108.445312 148.550781 108.710938 149.902344 108.800781 151.277344 C 108.933594 153.539062 108.777344 155.800781 108.335938 158.066406 C 107.9375 160.285156 107.402344 162.480469 106.738281 164.652344 C 106.25 166.160156 105.363281 167.449219 104.078125 168.511719 C 103.011719 169.445312 101.8125 170.222656 100.484375 170.84375 C 99.195312 171.417969 97.867188 171.863281 96.488281 172.171875 C 95.246094 172.394531 94.003906 172.503906 92.761719 172.503906 C 91.566406 172.503906 90.34375 172.460938 89.101562 172.371094 C 89.28125 174.101562 89.390625 175.855469 89.4375 177.628906 C 89.523438 179.402344 89.304688 181.132812 88.769531 182.820312 C 88.414062 183.972656 87.773438 184.949219 86.839844 185.75 Z M 88.371094 162.589844 C 88.902344 162.679688 89.457031 162.722656 90.035156 162.722656 C 90.613281 162.679688 91.167969 162.566406 91.699219 162.390625 C 92.140625 162.300781 92.5625 162.125 92.964844 161.859375 C 93.363281 161.59375 93.671875 161.257812 93.894531 160.859375 C 94.117188 160.550781 94.25 160.214844 94.292969 159.863281 C 94.382812 159.507812 94.472656 159.152344 94.558594 158.796875 C 94.605469 158.265625 94.625 157.578125 94.625 156.734375 C 94.625 155.847656 94.582031 154.960938 94.492188 154.074219 C 94.40625 153.140625 94.25 152.277344 94.027344 151.476562 C 93.804688 150.632812 93.539062 150.011719 93.230469 149.613281 C 92.964844 149.304688 92.652344 149.039062 92.296875 148.816406 C 91.675781 148.460938 90.988281 148.261719 90.234375 148.214844 C 89.523438 148.171875 88.792969 148.128906 88.039062 148.082031 C 87.816406 150.480469 87.726562 152.898438 87.773438 155.335938 C 87.863281 157.777344 88.0625 160.195312 88.371094 162.589844 Z M 124.4375 186.878906 C 122.75 187.144531 121.175781 187.191406 119.714844 187.011719 C 119.136719 186.921875 118.558594 186.789062 117.984375 186.613281 C 117.40625 186.4375 116.894531 186.148438 116.453125 185.75 C 115.917969 185.261719 115.5 184.683594 115.1875 184.019531 C 114.878906 183.308594 114.65625 182.574219 114.523438 181.820312 C 114.476562 181.378906 114.410156 180.535156 114.324219 179.292969 C 114.234375 178.050781 114.144531 176.71875 114.054688 175.300781 C 113.96875 173.878906 113.878906 172.550781 113.789062 171.308594 C 113.746094 170.066406 113.722656 169.222656 113.722656 168.777344 C 113.589844 164.832031 113.546875 160.90625 113.589844 157 C 113.679688 153.050781 113.945312 149.125 114.390625 145.222656 C 114.523438 144.203125 114.699219 143.179688 114.921875 142.160156 C 115.1875 141.097656 115.632812 140.121094 116.253906 139.234375 C 116.652344 138.65625 117.207031 138.210938 117.917969 137.902344 C 118.625 137.546875 119.335938 137.324219 120.046875 137.238281 C 121.066406 137.148438 122.109375 137.148438 123.171875 137.238281 C 124.238281 137.28125 125.257812 137.480469 126.234375 137.835938 C 126.722656 137.96875 127.167969 138.210938 127.566406 138.566406 C 127.964844 138.878906 128.273438 139.253906 128.496094 139.699219 C 128.851562 140.320312 129.074219 141.007812 129.164062 141.761719 C 129.296875 142.472656 129.363281 143.203125 129.363281 143.957031 C 129.363281 145.730469 129.273438 147.484375 129.097656 149.214844 C 128.917969 150.945312 128.785156 152.695312 128.695312 154.472656 C 128.472656 158.066406 128.363281 161.660156 128.363281 165.253906 C 128.363281 168.800781 128.5625 172.371094 128.960938 175.964844 C 129.097656 177.121094 129.230469 178.25 129.363281 179.359375 C 129.496094 180.46875 129.515625 181.601562 129.429688 182.753906 C 129.296875 183.640625 128.917969 184.417969 128.296875 185.082031 C 127.808594 185.613281 127.210938 186.015625 126.5 186.28125 C 125.835938 186.589844 125.148438 186.789062 124.4375 186.878906 Z M 162.171875 186.546875 C 161.507812 186.722656 160.707031 186.835938 159.777344 186.878906 C 158.890625 186.96875 158.003906 186.945312 157.113281 186.8125 C 156.226562 186.722656 155.386719 186.523438 154.585938 186.214844 C 153.832031 185.949219 153.253906 185.546875 152.855469 185.015625 C 152.546875 184.617188 152.347656 184.128906 152.257812 183.550781 C 150.570312 184.707031 148.640625 185.527344 146.46875 186.015625 C 144.292969 186.457031 142.230469 186.371094 140.277344 185.75 C 139.171875 185.394531 138.128906 184.839844 137.152344 184.085938 C 136.21875 183.285156 135.511719 182.375 135.023438 181.355469 C 134.355469 179.890625 134.023438 178.316406 134.023438 176.632812 C 134.023438 174.902344 134.289062 173.257812 134.824219 171.707031 C 135.175781 170.773438 135.730469 169.933594 136.484375 169.179688 C 137.285156 168.425781 138.148438 167.847656 139.082031 167.449219 C 140.5 166.828125 141.964844 166.425781 143.472656 166.25 C 144.980469 166.074219 146.492188 165.828125 148 165.519531 C 148.398438 165.429688 148.929688 165.296875 149.59375 165.117188 C 150.261719 164.898438 150.660156 164.609375 150.792969 164.253906 C 150.925781 163.855469 150.816406 163.523438 150.460938 163.253906 C 150.105469 162.988281 149.730469 162.8125 149.328125 162.722656 C 148.839844 162.632812 148.332031 162.613281 147.796875 162.65625 C 147.265625 162.65625 146.757812 162.699219 146.269531 162.789062 C 145.378906 162.878906 144.492188 163.011719 143.605469 163.1875 C 142.765625 163.320312 141.898438 163.433594 141.011719 163.523438 C 139.8125 163.609375 138.835938 163.34375 138.082031 162.722656 C 137.328125 162.101562 136.820312 161.324219 136.550781 160.394531 C 136.285156 159.460938 136.285156 158.488281 136.550781 157.464844 C 136.820312 156.402344 137.394531 155.46875 138.28125 154.671875 C 139.039062 153.960938 139.902344 153.429688 140.878906 153.074219 C 141.898438 152.675781 142.917969 152.34375 143.9375 152.074219 C 146.070312 151.589844 148.21875 151.300781 150.394531 151.210938 C 152.613281 151.078125 154.742188 151.34375 156.78125 152.007812 C 158.070312 152.410156 159.265625 153.050781 160.375 153.9375 C 161.484375 154.828125 162.417969 155.847656 163.171875 157 C 163.746094 157.886719 164.191406 158.886719 164.5 159.996094 C 164.8125 161.058594 165.011719 162.125 165.101562 163.1875 C 165.324219 164.785156 165.410156 166.40625 165.367188 168.046875 C 165.324219 169.644531 165.34375 171.242188 165.433594 172.839844 C 165.523438 174.035156 165.742188 175.210938 166.097656 176.363281 C 166.5 177.472656 166.742188 178.605469 166.832031 179.757812 C 166.917969 180.511719 166.898438 181.265625 166.765625 182.023438 C 166.675781 182.777344 166.429688 183.464844 166.03125 184.085938 C 165.589844 184.707031 165.011719 185.214844 164.300781 185.613281 C 163.636719 186.015625 162.925781 186.324219 162.171875 186.546875 Z M 144.738281 178.828125 C 145.492188 179.136719 146.3125 179.226562 147.199219 179.09375 C 148.574219 178.960938 149.839844 178.515625 150.992188 177.761719 C 151.480469 177.40625 151.945312 177.007812 152.390625 176.566406 C 152.878906 176.078125 153.210938 175.523438 153.386719 174.902344 C 153.65625 174.015625 153.589844 173.257812 153.1875 172.636719 C 152.789062 172.015625 152.191406 171.574219 151.390625 171.308594 C 150.636719 170.996094 149.773438 170.863281 148.796875 170.910156 C 147.820312 170.910156 146.910156 171.109375 146.070312 171.507812 C 145.449219 171.816406 144.871094 172.21875 144.339844 172.707031 C 143.851562 173.191406 143.472656 173.746094 143.207031 174.367188 C 142.851562 175.210938 142.808594 176.078125 143.074219 176.964844 C 143.339844 177.851562 143.894531 178.472656 144.738281 178.828125 Z M 206.558594 184.75 C 205.984375 185.414062 205.25 185.902344 204.363281 186.214844 C 203.476562 186.570312 202.542969 186.769531 201.570312 186.8125 C 200.59375 186.902344 199.617188 186.835938 198.640625 186.613281 C 197.664062 186.4375 196.800781 186.125 196.046875 185.679688 C 195.292969 185.238281 194.671875 184.617188 194.183594 183.816406 C 193.738281 183.019531 193.449219 182.175781 193.316406 181.289062 C 193.140625 180.179688 193.074219 179.070312 193.117188 177.960938 C 193.207031 176.851562 193.292969 175.742188 193.382812 174.636719 C 193.515625 173.480469 193.605469 172.351562 193.648438 171.242188 C 193.738281 170.085938 193.695312 168.957031 193.515625 167.847656 C 193.429688 167.449219 193.292969 167.027344 193.117188 166.582031 C 192.984375 166.09375 192.785156 165.652344 192.519531 165.253906 C 192.296875 164.808594 192.007812 164.429688 191.652344 164.121094 C 191.34375 163.808594 190.988281 163.632812 190.589844 163.589844 C 189.96875 163.5 189.300781 163.589844 188.59375 163.855469 C 187.925781 164.121094 187.417969 164.496094 187.0625 164.984375 C 186.707031 165.472656 186.460938 166.007812 186.328125 166.582031 C 186.195312 167.160156 186.085938 167.757812 185.996094 168.378906 C 185.90625 169.578125 185.90625 170.773438 185.996094 171.972656 C 186.128906 173.171875 186.242188 174.367188 186.328125 175.566406 C 186.417969 176.851562 186.394531 178.160156 186.261719 179.492188 C 186.128906 180.824219 185.773438 182.066406 185.199219 183.21875 C 185.019531 183.617188 184.800781 184.019531 184.53125 184.417969 C 184.265625 184.773438 183.957031 185.058594 183.601562 185.28125 C 183.246094 185.546875 182.847656 185.75 182.402344 185.882812 C 181.960938 185.96875 181.515625 186.058594 181.074219 186.148438 C 180.140625 186.28125 179.1875 186.347656 178.210938 186.347656 C 177.234375 186.390625 176.28125 186.28125 175.351562 186.015625 C 174.285156 185.75 173.421875 185.171875 172.753906 184.285156 C 172.3125 183.707031 172 183.0625 171.824219 182.355469 C 171.644531 181.644531 171.511719 180.914062 171.421875 180.160156 C 171.378906 179.847656 171.355469 179.316406 171.355469 178.5625 C 171.355469 177.808594 171.355469 176.941406 171.355469 175.964844 C 171.355469 174.988281 171.355469 173.96875 171.355469 172.90625 C 171.402344 171.839844 171.421875 170.820312 171.421875 169.84375 C 171.421875 168.867188 171.421875 168.003906 171.421875 167.25 C 171.421875 166.496094 171.421875 165.960938 171.421875 165.652344 C 171.421875 164.542969 171.402344 163.457031 171.355469 162.390625 C 171.3125 161.28125 171.15625 160.214844 170.890625 159.195312 C 170.667969 158.21875 170.582031 157.199219 170.625 156.136719 C 170.714844 155.027344 171.070312 154.074219 171.691406 153.273438 C 172.179688 152.5625 172.886719 152.054688 173.820312 151.742188 C 174.75 151.386719 175.660156 151.167969 176.546875 151.078125 C 177.390625 150.988281 178.253906 151.011719 179.144531 151.144531 C 180.074219 151.234375 180.894531 151.519531 181.605469 152.007812 C 182.316406 152.496094 182.871094 153.140625 183.269531 153.9375 C 183.710938 154.695312 184.042969 155.46875 184.265625 156.269531 C 184.355469 156.222656 184.511719 156.113281 184.734375 155.9375 C 184.953125 155.714844 185.109375 155.558594 185.199219 155.46875 C 186.574219 154.359375 188.082031 153.5625 189.722656 153.074219 C 191.410156 152.542969 193.09375 152.34375 194.78125 152.476562 C 196.46875 152.609375 198.109375 153.03125 199.707031 153.738281 C 201.300781 154.449219 202.699219 155.46875 203.898438 156.800781 C 205.050781 158.085938 205.984375 159.550781 206.691406 161.191406 C 207.402344 162.789062 207.914062 164.429688 208.222656 166.117188 C 208.667969 168.734375 208.933594 171.328125 209.023438 173.902344 C 209.066406 175.054688 209.042969 176.253906 208.957031 177.496094 C 208.867188 178.695312 208.6875 179.871094 208.421875 181.023438 C 208.246094 181.6875 208 182.355469 207.691406 183.019531 C 207.425781 183.683594 207.046875 184.261719 206.558594 184.75 Z M 231.097656 186.878906 C 229.414062 186.96875 227.660156 186.921875 225.84375 186.746094 C 224.066406 186.613281 222.402344 186.191406 220.851562 185.480469 C 219.652344 184.992188 218.523438 184.304688 217.457031 183.417969 C 216.4375 182.53125 215.570312 181.535156 214.863281 180.425781 C 214.152344 179.269531 213.621094 178.050781 213.265625 176.765625 C 212.953125 175.433594 212.734375 174.101562 212.601562 172.773438 C 212.378906 170.773438 212.355469 168.777344 212.53125 166.78125 C 212.753906 164.742188 213.265625 162.789062 214.0625 160.925781 C 214.683594 159.507812 215.460938 158.175781 216.394531 156.933594 C 217.367188 155.691406 218.5 154.625 219.785156 153.738281 C 221.871094 152.320312 224.199219 151.300781 226.773438 150.679688 C 229.390625 150.058594 231.964844 149.925781 234.492188 150.277344 C 236.3125 150.5 237.976562 151.1875 239.484375 152.34375 C 241.035156 153.453125 242.210938 154.804688 243.011719 156.402344 C 243.542969 157.554688 243.855469 158.773438 243.941406 160.0625 C 244.074219 161.347656 244.007812 162.589844 243.742188 163.789062 C 243.566406 164.632812 243.277344 165.429688 242.878906 166.183594 C 242.523438 166.9375 242.078125 167.625 241.546875 168.246094 C 240.703125 169.222656 239.707031 170.042969 238.550781 170.707031 C 237.445312 171.375 236.289062 171.839844 235.09375 172.105469 C 233.363281 172.503906 231.566406 172.59375 229.703125 172.371094 C 227.882812 172.105469 226.152344 171.640625 224.511719 170.976562 C 224.601562 171.550781 224.734375 172.128906 224.910156 172.707031 C 225.089844 173.238281 225.355469 173.726562 225.710938 174.167969 C 226.019531 174.523438 226.398438 174.835938 226.839844 175.101562 C 227.285156 175.324219 227.75 175.476562 228.238281 175.566406 C 228.992188 175.742188 229.769531 175.8125 230.566406 175.765625 C 231.410156 175.675781 232.207031 175.542969 232.960938 175.367188 C 233.851562 175.144531 234.714844 174.902344 235.558594 174.636719 C 236.402344 174.324219 237.199219 173.96875 237.953125 173.570312 C 238.308594 173.394531 238.6875 173.257812 239.085938 173.171875 C 239.484375 173.082031 239.882812 173.082031 240.28125 173.171875 C 240.902344 173.304688 241.457031 173.59375 241.945312 174.035156 C 242.433594 174.480469 242.832031 174.988281 243.144531 175.566406 C 243.675781 176.5 243.964844 177.472656 244.007812 178.496094 C 244.054688 179.515625 243.875 180.492188 243.476562 181.421875 C 243.121094 182.308594 242.566406 183.109375 241.8125 183.816406 C 241.058594 184.527344 240.171875 185.058594 239.152344 185.414062 C 237.863281 185.859375 236.535156 186.191406 235.160156 186.414062 C 233.828125 186.636719 232.472656 186.789062 231.097656 186.878906 Z M 224.777344 166.648438 C 225.621094 167.09375 226.53125 167.382812 227.507812 167.515625 C 228.480469 167.601562 229.414062 167.558594 230.300781 167.382812 C 230.921875 167.292969 231.519531 167.09375 232.097656 166.78125 C 232.675781 166.472656 233.097656 166.050781 233.363281 165.519531 C 233.582031 164.984375 233.652344 164.363281 233.5625 163.65625 C 233.515625 163.433594 233.316406 163.121094 232.960938 162.722656 C 232.652344 162.28125 232.386719 161.992188 232.164062 161.859375 C 231.675781 161.457031 231.097656 161.257812 230.433594 161.257812 C 229.546875 161.347656 228.746094 161.636719 228.039062 162.125 C 226.398438 163.144531 225.308594 164.652344 224.777344 166.648438 Z M 267.453125 186.878906 C 265.855469 187.144531 264.28125 187.191406 262.726562 187.011719 C 262.152344 186.921875 261.574219 186.789062 261 186.613281 C 260.464844 186.4375 259.976562 186.148438 259.535156 185.75 C 258.957031 185.261719 258.511719 184.683594 258.203125 184.019531 C 257.894531 183.308594 257.691406 182.574219 257.605469 181.820312 C 257.515625 181.332031 257.425781 180.378906 257.339844 178.960938 C 257.25 177.496094 257.160156 175.964844 257.070312 174.367188 C 256.984375 172.773438 256.894531 171.261719 256.804688 169.84375 C 256.761719 168.378906 256.738281 167.402344 256.738281 166.914062 C 256.5625 166.914062 256.207031 166.9375 255.675781 166.980469 C 255.1875 166.980469 254.652344 166.980469 254.078125 166.980469 C 253.546875 166.980469 253.011719 166.980469 252.480469 166.980469 C 251.992188 166.980469 251.660156 166.980469 251.480469 166.980469 C 250.949219 166.894531 250.394531 166.78125 249.820312 166.648438 C 249.285156 166.515625 248.84375 166.273438 248.488281 165.917969 C 248 165.472656 247.644531 164.941406 247.421875 164.320312 C 247.246094 163.65625 247.132812 163.011719 247.089844 162.390625 C 247.089844 161.945312 247.113281 161.371094 247.15625 160.660156 C 247.246094 159.90625 247.355469 159.175781 247.488281 158.464844 C 247.621094 157.710938 247.800781 157 248.023438 156.335938 C 248.242188 155.667969 248.511719 155.179688 248.820312 154.871094 C 249.175781 154.558594 249.617188 154.292969 250.152344 154.074219 C 250.417969 153.9375 250.859375 153.871094 251.480469 153.871094 C 252.101562 153.828125 252.746094 153.828125 253.410156 153.871094 C 254.121094 153.871094 254.785156 153.894531 255.410156 153.9375 C 256.074219 153.9375 256.539062 153.9375 256.804688 153.9375 C 256.894531 152.785156 256.960938 151.65625 257.003906 150.546875 C 257.09375 149.4375 257.183594 148.304688 257.273438 147.152344 C 257.359375 145.820312 257.515625 144.488281 257.738281 143.160156 C 257.960938 141.785156 258.445312 140.542969 259.203125 139.433594 C 259.601562 138.8125 260.15625 138.324219 260.863281 137.96875 C 261.621094 137.570312 262.375 137.324219 263.128906 137.238281 C 264.148438 137.148438 265.167969 137.148438 266.1875 137.238281 C 267.253906 137.28125 268.296875 137.480469 269.316406 137.835938 C 269.804688 137.96875 270.246094 138.210938 270.648438 138.566406 C 271.046875 138.878906 271.355469 139.253906 271.578125 139.699219 C 271.933594 140.320312 272.15625 141.007812 272.246094 141.761719 C 272.378906 142.472656 272.445312 143.203125 272.445312 143.957031 C 272.445312 145.644531 272.355469 147.308594 272.179688 148.949219 C 272 150.589844 271.867188 152.253906 271.777344 153.9375 C 272.800781 153.9375 273.820312 153.960938 274.839844 154.003906 C 275.859375 154.050781 276.8125 154.25 277.699219 154.605469 C 278.144531 154.78125 278.523438 155.046875 278.832031 155.402344 C 279.144531 155.714844 279.410156 156.046875 279.632812 156.402344 C 279.941406 157.023438 280.097656 157.753906 280.097656 158.597656 C 280.140625 159.308594 280.140625 160.015625 280.097656 160.726562 C 280.050781 161.4375 279.941406 162.148438 279.765625 162.855469 C 279.675781 163.300781 279.519531 163.722656 279.296875 164.121094 C 279.074219 164.519531 278.789062 164.851562 278.433594 165.117188 C 277.855469 165.5625 277.144531 165.828125 276.304688 165.917969 C 275.503906 166.050781 274.707031 166.117188 273.90625 166.117188 C 273.109375 166.117188 272.289062 166.140625 271.445312 166.183594 C 271.445312 169.464844 271.644531 172.726562 272.042969 175.964844 C 272.179688 177.121094 272.289062 178.25 272.378906 179.359375 C 272.511719 180.46875 272.53125 181.601562 272.445312 182.753906 C 272.398438 183.152344 272.265625 183.550781 272.042969 183.953125 C 271.867188 184.351562 271.644531 184.726562 271.378906 185.082031 C 270.890625 185.613281 270.292969 186.015625 269.582031 186.28125 C 268.917969 186.589844 268.207031 186.789062 267.453125 186.878906 Z M 267.453125 186.878906 "/></clipPath><clipPath id="68c6fb0e10"><path d="M 72 188 L 280.414062 188 L 280.414062 224.605469 L 72 224.605469 Z M 72 188 "/></clipPath><clipPath id="34abd7b972"><path d="M 87.433594 223.421875 C 86.410156 223.421875 85.382812 223.394531 84.359375 223.332031 C 83.335938 223.300781 82.324219 223.167969 81.328125 222.925781 C 80.214844 222.683594 79.128906 222.277344 78.074219 221.703125 C 77.046875 221.101562 76.144531 220.363281 75.359375 219.488281 C 74.695312 218.792969 74.152344 218.011719 73.730469 217.136719 C 73.339844 216.230469 73.023438 215.328125 72.78125 214.421875 C 72.421875 212.914062 72.222656 211.40625 72.195312 209.898438 C 72.195312 208.363281 72.253906 206.824219 72.375 205.289062 C 72.527344 203.207031 72.828125 201.113281 73.28125 199 C 73.761719 196.859375 74.589844 194.929688 75.765625 193.210938 C 76.460938 192.1875 77.378906 191.34375 78.527344 190.679688 C 79.671875 190.015625 80.863281 189.609375 82.097656 189.457031 C 83.03125 189.339844 83.96875 189.234375 84.902344 189.140625 C 85.835938 189.050781 86.773438 189.019531 87.707031 189.050781 C 89.03125 189.050781 90.34375 189.21875 91.640625 189.550781 C 92.96875 189.851562 94.203125 190.347656 95.347656 191.042969 C 96.132812 191.523438 96.839844 192.113281 97.476562 192.804688 C 98.136719 193.5 98.679688 194.253906 99.101562 195.066406 C 99.644531 196.210938 100.007812 197.417969 100.1875 198.683594 C 100.398438 199.921875 100.535156 201.171875 100.59375 202.4375 C 100.746094 204.699219 100.730469 206.976562 100.550781 209.265625 C 100.398438 211.558594 99.917969 213.757812 99.101562 215.871094 C 98.621094 217.105469 97.941406 218.25 97.066406 219.308594 C 96.195312 220.332031 95.183594 221.175781 94.039062 221.839844 C 93.074219 222.441406 92.019531 222.851562 90.871094 223.0625 C 89.726562 223.273438 88.582031 223.394531 87.433594 223.421875 Z M 85.898438 214.105469 C 86.46875 214.226562 87.042969 214.289062 87.617188 214.289062 C 88.1875 214.257812 88.746094 214.136719 89.289062 213.925781 C 89.742188 213.773438 90.132812 213.519531 90.464844 213.15625 C 90.796875 212.765625 91.082031 212.359375 91.324219 211.933594 C 91.6875 211.300781 91.941406 210.625 92.09375 209.898438 C 92.273438 209.148438 92.410156 208.40625 92.5 207.683594 C 92.652344 206.449219 92.695312 205.210938 92.636719 203.976562 C 92.605469 203.523438 92.558594 203.070312 92.5 202.617188 C 92.46875 202.136719 92.378906 201.667969 92.230469 201.21875 C 91.957031 200.402344 91.445312 199.769531 90.691406 199.316406 C 90.207031 199.015625 89.679688 198.820312 89.109375 198.730469 C 88.566406 198.640625 88.007812 198.59375 87.433594 198.59375 C 87.011719 198.5625 86.605469 198.578125 86.214844 198.640625 C 85.820312 198.667969 85.445312 198.761719 85.082031 198.910156 C 84.78125 199.03125 84.511719 199.195312 84.269531 199.40625 C 84.027344 199.621094 83.816406 199.84375 83.636719 200.085938 C 83.242188 200.597656 82.941406 201.171875 82.730469 201.804688 C 82.519531 202.40625 82.339844 203.027344 82.1875 203.660156 C 81.855469 205.347656 81.78125 207.007812 81.960938 208.632812 C 82.023438 209.328125 82.128906 210.019531 82.277344 210.714844 C 82.429688 211.378906 82.703125 211.964844 83.09375 212.476562 C 83.425781 212.898438 83.847656 213.246094 84.359375 213.519531 C 84.871094 213.789062 85.382812 213.984375 85.898438 214.105469 Z M 121.355469 222.066406 C 119.726562 222.488281 118.085938 222.746094 116.425781 222.835938 C 114.769531 222.925781 113.09375 222.941406 111.40625 222.878906 C 111.105469 222.878906 110.742188 222.863281 110.320312 222.835938 C 109.929688 222.835938 109.523438 222.804688 109.101562 222.746094 C 108.707031 222.652344 108.347656 222.546875 108.015625 222.425781 C 107.714844 222.277344 107.503906 222.066406 107.382812 221.792969 C 107.199219 221.371094 107.09375 220.933594 107.066406 220.484375 C 107.066406 220 107.050781 219.535156 107.019531 219.082031 C 106.988281 218.660156 106.898438 217.90625 106.75 216.820312 C 106.597656 215.734375 106.417969 214.5 106.207031 213.113281 C 105.996094 211.722656 105.769531 210.246094 105.527344 208.679688 C 105.316406 207.113281 105.105469 205.632812 104.894531 204.246094 C 104.683594 202.859375 104.503906 201.640625 104.351562 200.582031 C 104.230469 199.5 104.15625 198.746094 104.125 198.324219 C 104.066406 197.175781 104.140625 196.015625 104.351562 194.839844 C 104.59375 193.632812 105.089844 192.59375 105.84375 191.71875 C 106.355469 191.148438 106.945312 190.664062 107.609375 190.273438 C 108.269531 189.851562 108.949219 189.503906 109.644531 189.234375 C 110.457031 188.902344 111.300781 188.675781 112.175781 188.554688 C 113.050781 188.433594 113.925781 188.375 114.796875 188.375 C 116.15625 188.375 117.480469 188.492188 118.777344 188.734375 C 120.074219 188.945312 121.355469 189.292969 122.621094 189.773438 C 123.496094 190.078125 124.324219 190.453125 125.109375 190.90625 C 125.925781 191.328125 126.648438 191.855469 127.28125 192.488281 C 129.058594 194.175781 130.386719 196.136719 131.261719 198.367188 C 132.015625 200.359375 132.542969 202.453125 132.84375 204.652344 C 133.175781 206.824219 133.101562 208.949219 132.617188 211.03125 C 132.316406 212.449219 131.820312 213.820312 131.125 215.144531 C 130.429688 216.441406 129.558594 217.574219 128.5 218.539062 C 127.535156 219.441406 126.421875 220.179688 125.15625 220.753906 C 123.917969 221.296875 122.652344 221.734375 121.355469 222.066406 Z M 115.386719 199.90625 C 115.324219 200.296875 115.3125 200.886719 115.339844 201.667969 C 115.402344 202.421875 115.492188 203.28125 115.613281 204.246094 C 115.761719 205.210938 115.914062 206.238281 116.066406 207.324219 C 116.246094 208.378906 116.410156 209.386719 116.5625 210.351562 C 116.742188 211.316406 116.894531 212.191406 117.015625 212.976562 C 117.164062 213.730469 117.269531 214.300781 117.332031 214.695312 C 119.199219 214.695312 120.679688 213.925781 121.761719 212.386719 C 122.425781 211.484375 122.863281 210.441406 123.074219 209.265625 C 123.316406 208.0625 123.375 206.886719 123.253906 205.738281 C 123.164062 204.714844 122.9375 203.703125 122.578125 202.710938 C 122.214844 201.714844 121.703125 200.824219 121.039062 200.042969 C 120.769531 199.710938 120.4375 199.394531 120.042969 199.089844 C 119.652344 198.789062 119.230469 198.546875 118.777344 198.367188 C 118.355469 198.1875 117.917969 198.097656 117.46875 198.097656 C 117.042969 198.066406 116.652344 198.171875 116.292969 198.414062 C 115.777344 198.746094 115.476562 199.242188 115.386719 199.90625 Z M 153.289062 222.066406 C 151.660156 222.488281 150.015625 222.746094 148.359375 222.835938 C 146.699219 222.925781 145.027344 222.941406 143.339844 222.878906 C 143.035156 222.878906 142.675781 222.863281 142.253906 222.835938 C 141.859375 222.835938 141.453125 222.804688 141.03125 222.746094 C 140.640625 222.652344 140.277344 222.546875 139.945312 222.425781 C 139.644531 222.277344 139.433594 222.066406 139.3125 221.792969 C 139.132812 221.371094 139.027344 220.933594 138.996094 220.484375 C 138.996094 220 138.980469 219.535156 138.953125 219.082031 C 138.921875 218.660156 138.832031 217.90625 138.679688 216.820312 C 138.527344 215.734375 138.347656 214.5 138.136719 213.113281 C 137.925781 211.722656 137.699219 210.246094 137.457031 208.679688 C 137.246094 207.113281 137.035156 205.632812 136.824219 204.246094 C 136.613281 202.859375 136.433594 201.640625 136.28125 200.582031 C 136.164062 199.5 136.085938 198.746094 136.058594 198.324219 C 135.996094 197.175781 136.070312 196.015625 136.28125 194.839844 C 136.523438 193.632812 137.023438 192.59375 137.777344 191.71875 C 138.289062 191.148438 138.875 190.664062 139.539062 190.273438 C 140.203125 189.851562 140.878906 189.503906 141.574219 189.234375 C 142.386719 188.902344 143.234375 188.675781 144.105469 188.554688 C 144.980469 188.433594 145.855469 188.375 146.730469 188.375 C 148.085938 188.375 149.414062 188.492188 150.710938 188.734375 C 152.007812 188.945312 153.289062 189.292969 154.554688 189.773438 C 155.429688 190.078125 156.257812 190.453125 157.042969 190.90625 C 157.855469 191.328125 158.578125 191.855469 159.210938 192.488281 C 160.992188 194.175781 162.316406 196.136719 163.191406 198.367188 C 163.945312 200.359375 164.472656 202.453125 164.773438 204.652344 C 165.105469 206.824219 165.03125 208.949219 164.546875 211.03125 C 164.246094 212.449219 163.75 213.820312 163.054688 215.144531 C 162.363281 216.441406 161.488281 217.574219 160.433594 218.539062 C 159.46875 219.441406 158.351562 220.179688 157.085938 220.753906 C 155.851562 221.296875 154.585938 221.734375 153.289062 222.066406 Z M 147.316406 199.90625 C 147.257812 200.296875 147.242188 200.886719 147.273438 201.667969 C 147.332031 202.421875 147.421875 203.28125 147.542969 204.246094 C 147.695312 205.210938 147.84375 206.238281 147.996094 207.324219 C 148.175781 208.378906 148.34375 209.386719 148.492188 210.351562 C 148.675781 211.316406 148.824219 212.191406 148.945312 212.976562 C 149.097656 213.730469 149.203125 214.300781 149.261719 214.695312 C 151.132812 214.695312 152.609375 213.925781 153.695312 212.386719 C 154.359375 211.484375 154.796875 210.441406 155.007812 209.265625 C 155.246094 208.0625 155.308594 206.886719 155.1875 205.738281 C 155.097656 204.714844 154.871094 203.703125 154.507812 202.710938 C 154.148438 201.714844 153.632812 200.824219 152.972656 200.042969 C 152.699219 199.710938 152.367188 199.394531 151.976562 199.089844 C 151.585938 198.789062 151.164062 198.546875 150.710938 198.367188 C 150.289062 198.1875 149.851562 198.097656 149.398438 198.097656 C 148.976562 198.066406 148.585938 198.171875 148.222656 198.414062 C 147.710938 198.746094 147.410156 199.242188 147.316406 199.90625 Z M 186.125 222.835938 C 185.339844 223.074219 184.539062 223.226562 183.726562 223.285156 C 182.941406 223.378906 182.160156 223.40625 181.375 223.378906 C 181.285156 223.378906 181.089844 223.363281 180.785156 223.332031 C 180.515625 223.332031 180.199219 223.316406 179.835938 223.285156 C 179.503906 223.257812 179.1875 223.226562 178.886719 223.195312 C 178.617188 223.195312 178.433594 223.195312 178.34375 223.195312 C 177.863281 223.167969 177.378906 223.167969 176.898438 223.195312 C 176.445312 223.226562 175.976562 223.226562 175.496094 223.195312 C 174.800781 223.136719 174.109375 223.046875 173.414062 222.925781 C 172.753906 222.804688 172.132812 222.546875 171.5625 222.15625 C 171.410156 222.035156 171.246094 221.871094 171.0625 221.660156 C 170.914062 221.449219 170.761719 221.222656 170.613281 220.980469 C 170.460938 220.710938 170.324219 220.453125 170.203125 220.210938 C 170.113281 219.941406 170.070312 219.714844 170.070312 219.535156 C 169.949219 215.886719 169.78125 212.253906 169.570312 208.632812 C 169.359375 204.984375 168.953125 201.351562 168.351562 197.734375 C 168.230469 197.101562 168.125 196.46875 168.035156 195.835938 C 167.972656 195.203125 167.972656 194.585938 168.035156 193.980469 C 168.125 193.105469 168.425781 192.351562 168.9375 191.71875 C 169.359375 191.207031 169.871094 190.816406 170.476562 190.542969 C 171.109375 190.242188 171.726562 189.984375 172.328125 189.773438 C 173.113281 189.535156 173.882812 189.339844 174.636719 189.1875 C 175.421875 189.035156 176.203125 188.902344 176.988281 188.78125 C 177.742188 188.628906 178.480469 188.507812 179.203125 188.417969 C 179.957031 188.328125 180.710938 188.269531 181.464844 188.238281 C 182.820312 188.175781 184.179688 188.3125 185.535156 188.644531 C 186.890625 188.976562 188.128906 189.535156 189.246094 190.316406 C 190.117188 190.921875 190.84375 191.71875 191.414062 192.714844 C 192.019531 193.679688 192.378906 194.691406 192.5 195.746094 C 192.5625 196.226562 192.5625 196.710938 192.5 197.191406 C 192.441406 197.644531 192.347656 198.113281 192.230469 198.59375 C 191.988281 199.40625 191.640625 200.191406 191.1875 200.945312 C 190.738281 201.667969 190.222656 202.347656 189.652344 202.980469 C 190.617188 203.464844 191.519531 204.082031 192.363281 204.835938 C 193.238281 205.558594 193.933594 206.402344 194.445312 207.367188 C 195.019531 208.421875 195.378906 209.597656 195.53125 210.894531 C 195.679688 212.160156 195.636719 213.382812 195.394531 214.558594 C 195.0625 216.15625 194.339844 217.542969 193.222656 218.71875 C 192.289062 219.714844 191.203125 220.558594 189.96875 221.25 C 188.730469 221.914062 187.449219 222.441406 186.125 222.835938 Z M 178.753906 201.035156 C 178.933594 201.21875 179.144531 201.324219 179.386719 201.351562 C 179.65625 201.382812 179.914062 201.382812 180.152344 201.351562 C 181.027344 201.292969 181.828125 200.960938 182.550781 200.359375 C 183.273438 199.726562 183.757812 198.972656 184 198.097656 C 184.148438 197.492188 184.105469 196.84375 183.863281 196.152344 C 183.652344 195.429688 183.246094 194.945312 182.640625 194.703125 C 182.339844 194.585938 182.023438 194.539062 181.691406 194.570312 C 181.390625 194.597656 181.074219 194.644531 180.742188 194.703125 C 180.257812 194.824219 179.820312 195.066406 179.429688 195.429688 C 179.070312 195.761719 178.765625 196.136719 178.527344 196.558594 C 178.195312 197.160156 178 197.871094 177.9375 198.683594 C 177.90625 198.746094 177.90625 198.851562 177.9375 199 C 178 199.121094 178.042969 199.210938 178.074219 199.273438 C 178.132812 199.574219 178.195312 199.890625 178.253906 200.222656 C 178.34375 200.554688 178.511719 200.824219 178.753906 201.035156 Z M 179.023438 212.886719 C 179.144531 213.367188 179.371094 213.773438 179.703125 214.105469 C 180.035156 214.4375 180.410156 214.695312 180.832031 214.875 C 181.253906 215.027344 181.722656 215.117188 182.234375 215.144531 C 182.746094 215.144531 183.246094 215.085938 183.726562 214.964844 C 184.300781 214.816406 184.78125 214.511719 185.175781 214.0625 C 185.566406 213.609375 185.824219 213.097656 185.941406 212.523438 C 186.09375 211.949219 186.109375 211.378906 185.988281 210.804688 C 185.867188 210.203125 185.582031 209.6875 185.128906 209.265625 C 184.707031 208.84375 184.179688 208.542969 183.546875 208.363281 C 182.914062 208.183594 182.308594 208.167969 181.738281 208.316406 C 181.222656 208.46875 180.726562 208.722656 180.246094 209.085938 C 179.792969 209.417969 179.414062 209.824219 179.113281 210.308594 C 179.023438 210.429688 178.964844 210.609375 178.933594 210.851562 C 178.902344 211.089844 178.886719 211.347656 178.886719 211.617188 C 178.886719 211.859375 178.902344 212.101562 178.933594 212.34375 C 178.964844 212.582031 178.992188 212.765625 179.023438 212.886719 Z M 206.917969 223.421875 C 205.953125 223.933594 204.882812 224.160156 203.707031 224.101562 C 203.164062 224.070312 202.625 223.964844 202.082031 223.785156 C 201.539062 223.632812 201.054688 223.378906 200.632812 223.015625 C 200.269531 222.714844 199.96875 222.367188 199.730469 221.976562 C 199.488281 221.554688 199.292969 221.132812 199.140625 220.710938 C 198.898438 219.984375 198.75 219.246094 198.6875 218.492188 C 198.628906 217.738281 198.582031 216.984375 198.554688 216.230469 C 198.523438 214.933594 198.539062 213.652344 198.597656 212.386719 C 198.660156 211.089844 198.734375 209.792969 198.824219 208.5 C 198.945312 207.351562 199.066406 206.207031 199.1875 205.0625 C 199.304688 203.886719 199.488281 202.726562 199.730469 201.578125 C 200.058594 199.859375 200.679688 198.230469 201.582031 196.695312 C 202.515625 195.125 203.648438 193.800781 204.976562 192.714844 C 206.421875 191.570312 208.109375 190.738281 210.039062 190.226562 C 212 189.714844 213.882812 189.667969 215.691406 190.089844 C 216.65625 190.304688 217.578125 190.621094 218.453125 191.042969 C 219.355469 191.433594 220.199219 191.914062 220.984375 192.488281 C 221.738281 193.03125 222.355469 193.710938 222.839844 194.523438 C 223.351562 195.335938 223.773438 196.167969 224.105469 197.011719 C 224.648438 198.308594 225.085938 199.632812 225.417969 200.992188 C 225.75 202.316406 226.019531 203.675781 226.230469 205.0625 C 226.472656 206.6875 226.636719 208.300781 226.726562 209.898438 C 226.820312 211.5 226.804688 213.113281 226.683594 214.738281 C 226.621094 215.402344 226.53125 216.1875 226.410156 217.089844 C 226.292969 217.996094 226.09375 218.886719 225.824219 219.757812 C 225.582031 220.632812 225.25 221.433594 224.828125 222.15625 C 224.4375 222.851562 223.9375 223.316406 223.335938 223.558594 C 222.671875 223.800781 221.964844 223.875 221.210938 223.785156 C 220.488281 223.695312 219.777344 223.574219 219.085938 223.421875 C 218.511719 223.273438 218.042969 223 217.683594 222.609375 C 217.441406 222.308594 217.246094 221.976562 217.09375 221.613281 C 216.945312 221.25 216.839844 220.890625 216.777344 220.527344 C 216.539062 219.472656 216.433594 218.402344 216.460938 217.316406 C 216.523438 216.203125 216.550781 215.101562 216.550781 214.015625 C 215.285156 213.984375 214.035156 214.03125 212.796875 214.152344 C 211.59375 214.242188 210.355469 214.347656 209.089844 214.46875 C 209.089844 214.738281 209.074219 215.191406 209.046875 215.824219 C 209.046875 216.457031 209.03125 217.136719 209 217.859375 C 209 218.554688 208.96875 219.214844 208.910156 219.851562 C 208.878906 220.484375 208.835938 220.921875 208.773438 221.160156 C 208.621094 221.644531 208.382812 222.097656 208.050781 222.519531 C 207.75 222.910156 207.371094 223.210938 206.917969 223.421875 Z M 209.179688 207.730469 C 209.390625 207.730469 209.84375 207.730469 210.539062 207.730469 C 211.230469 207.730469 211.953125 207.730469 212.707031 207.730469 C 213.492188 207.730469 214.230469 207.730469 214.925781 207.730469 C 215.617188 207.730469 216.070312 207.730469 216.28125 207.730469 C 216.3125 206.976562 216.339844 206.238281 216.371094 205.511719 C 216.433594 204.757812 216.417969 204.019531 216.328125 203.296875 C 216.265625 202.816406 216.128906 202.332031 215.917969 201.851562 C 215.738281 201.367188 215.480469 200.945312 215.152344 200.582031 C 214.757812 200.191406 214.304688 199.949219 213.792969 199.859375 C 213.3125 199.738281 212.8125 199.753906 212.300781 199.90625 C 211.820312 200.054688 211.367188 200.328125 210.945312 200.71875 C 210.523438 201.082031 210.207031 201.519531 209.996094 202.03125 C 209.601562 202.90625 209.363281 203.839844 209.269531 204.835938 C 209.179688 205.800781 209.152344 206.765625 209.179688 207.730469 Z M 247.902344 222.96875 C 246.964844 223.121094 246.03125 223.210938 245.097656 223.242188 C 244.164062 223.300781 243.214844 223.332031 242.25 223.332031 C 241.585938 223.332031 240.769531 223.300781 239.804688 223.242188 C 238.839844 223.210938 237.859375 223.121094 236.867188 222.96875 C 235.902344 222.820312 235.011719 222.578125 234.199219 222.246094 C 233.382812 221.914062 232.8125 221.476562 232.480469 220.933594 C 231.9375 220.0625 231.589844 219.097656 231.4375 218.039062 C 231.320312 216.984375 231.242188 215.945312 231.214844 214.921875 C 231.214844 214.800781 231.199219 214.558594 231.167969 214.195312 C 231.136719 213.804688 231.109375 213.398438 231.078125 212.976562 C 231.046875 212.554688 231.003906 212.160156 230.941406 211.800781 C 230.910156 211.40625 230.898438 211.152344 230.898438 211.03125 C 230.777344 208.738281 230.714844 206.449219 230.714844 204.15625 C 230.714844 201.867188 230.851562 199.574219 231.121094 197.28125 C 231.214844 196.347656 231.347656 195.414062 231.53125 194.480469 C 231.742188 193.542969 232.058594 192.65625 232.480469 191.808594 C 232.722656 191.328125 233.039062 190.890625 233.429688 190.5 C 233.820312 190.105469 234.257812 189.789062 234.742188 189.550781 C 235.402344 189.246094 236.066406 189.035156 236.730469 188.914062 C 237.425781 188.765625 238.085938 188.734375 238.71875 188.824219 C 239.382812 188.914062 240.003906 189.113281 240.574219 189.414062 C 241.179688 189.714844 241.707031 190.152344 242.15625 190.726562 C 242.671875 191.417969 243 192.21875 243.152344 193.121094 C 243.304688 194.027344 243.347656 194.914062 243.289062 195.789062 C 243.226562 197.027344 243.121094 198.382812 242.972656 199.859375 C 242.820312 201.308594 242.671875 202.785156 242.519531 204.292969 C 242.367188 205.769531 242.234375 207.246094 242.113281 208.722656 C 242.023438 210.171875 241.976562 211.511719 241.976562 212.75 C 242.519531 212.660156 243.121094 212.570312 243.785156 212.476562 C 244.449219 212.386719 245.128906 212.3125 245.820312 212.253906 C 246.515625 212.191406 247.191406 212.160156 247.855469 212.160156 C 248.550781 212.132812 249.167969 212.132812 249.710938 212.160156 C 250.3125 212.222656 250.917969 212.359375 251.519531 212.570312 C 252.121094 212.75 252.605469 213.082031 252.964844 213.5625 C 253.390625 214.136719 253.675781 214.785156 253.824219 215.507812 C 254.007812 216.230469 254.066406 216.941406 254.007812 217.632812 C 253.945312 218.144531 253.824219 218.660156 253.644531 219.171875 C 253.492188 219.652344 253.269531 220.105469 252.964844 220.527344 C 252.453125 221.222656 251.804688 221.78125 251.023438 222.203125 C 250.539062 222.441406 250.027344 222.625 249.484375 222.746094 C 248.972656 222.835938 248.445312 222.910156 247.902344 222.96875 Z M 274.046875 222.96875 C 273.113281 223.121094 272.175781 223.210938 271.242188 223.242188 C 270.308594 223.300781 269.359375 223.332031 268.394531 223.332031 C 267.730469 223.332031 266.917969 223.300781 265.953125 223.242188 C 264.988281 223.210938 264.007812 223.121094 263.011719 222.96875 C 262.046875 222.820312 261.15625 222.578125 260.34375 222.246094 C 259.53125 221.914062 258.957031 221.476562 258.625 220.933594 C 258.082031 220.0625 257.734375 219.097656 257.585938 218.039062 C 257.464844 216.984375 257.390625 215.945312 257.359375 214.921875 C 257.359375 214.800781 257.34375 214.558594 257.3125 214.195312 C 257.285156 213.804688 257.253906 213.398438 257.222656 212.976562 C 257.191406 212.554688 257.148438 212.160156 257.085938 211.800781 C 257.058594 211.40625 257.042969 211.152344 257.042969 211.03125 C 256.921875 208.738281 256.863281 206.449219 256.863281 204.15625 C 256.863281 201.867188 256.996094 199.574219 257.269531 197.28125 C 257.359375 196.347656 257.496094 195.414062 257.675781 194.480469 C 257.886719 193.542969 258.203125 192.65625 258.625 191.808594 C 258.867188 191.328125 259.183594 190.890625 259.574219 190.5 C 259.96875 190.105469 260.402344 189.789062 260.886719 189.550781 C 261.550781 189.246094 262.214844 189.035156 262.875 188.914062 C 263.570312 188.765625 264.234375 188.734375 264.867188 188.824219 C 265.53125 188.914062 266.148438 189.113281 266.71875 189.414062 C 267.324219 189.714844 267.851562 190.152344 268.304688 190.726562 C 268.816406 191.417969 269.148438 192.21875 269.296875 193.121094 C 269.449219 194.027344 269.496094 194.914062 269.433594 195.789062 C 269.375 197.027344 269.269531 198.382812 269.117188 199.859375 C 268.964844 201.308594 268.816406 202.785156 268.664062 204.292969 C 268.515625 205.769531 268.378906 207.246094 268.257812 208.722656 C 268.167969 210.171875 268.121094 211.511719 268.121094 212.75 C 268.664062 212.660156 269.269531 212.570312 269.929688 212.476562 C 270.59375 212.386719 271.273438 212.3125 271.964844 212.253906 C 272.660156 212.191406 273.339844 212.160156 274 212.160156 C 274.695312 212.132812 275.3125 212.132812 275.855469 212.160156 C 276.460938 212.222656 277.0625 212.359375 277.664062 212.570312 C 278.269531 212.75 278.75 213.082031 279.113281 213.5625 C 279.535156 214.136719 279.820312 214.785156 279.972656 215.507812 C 280.152344 216.230469 280.210938 216.941406 280.152344 217.632812 C 280.09375 218.144531 279.972656 218.660156 279.789062 219.171875 C 279.640625 219.652344 279.414062 220.105469 279.113281 220.527344 C 278.601562 221.222656 277.953125 221.78125 277.167969 222.203125 C 276.683594 222.441406 276.171875 222.625 275.628906 222.746094 C 275.117188 222.835938 274.589844 222.910156 274.046875 222.96875 Z M 274.046875 222.96875 "/></clipPath></defs><g id="891139a5c9"><rect x="0" width="375" y="0" height="374.999991" style="fill:#ffffff;fill-opacity:1;stroke:none;"/><rect x="0" width="375" y="0" height="374.999991" style="fill:#ffffff;fill-opacity:1;stroke:none;"/><g clip-rule="nonzero" clip-path="url(#201c89f6e7)"><path style=" stroke:none;fill-rule:nonzero;fill:#bd9ddb;fill-opacity:1;" d="M 280.402344 182.320312 C 280.402344 184.027344 280.359375 185.730469 280.277344 187.4375 C 280.191406 189.140625 280.066406 190.839844 279.898438 192.539062 C 279.730469 194.238281 279.523438 195.929688 279.273438 197.617188 C 279.023438 199.304688 278.730469 200.984375 278.398438 202.65625 C 278.066406 204.332031 277.691406 205.996094 277.277344 207.648438 C 276.863281 209.304688 276.410156 210.949219 275.914062 212.582031 C 275.417969 214.214844 274.882812 215.832031 274.308594 217.441406 C 273.734375 219.046875 273.121094 220.636719 272.46875 222.214844 C 271.8125 223.789062 271.121094 225.347656 270.394531 226.890625 C 269.664062 228.433594 268.898438 229.957031 268.09375 231.460938 C 267.289062 232.964844 266.449219 234.449219 265.570312 235.914062 C 264.695312 237.375 263.78125 238.816406 262.835938 240.234375 C 261.886719 241.65625 260.902344 243.050781 259.886719 244.417969 C 258.871094 245.789062 257.824219 247.132812 256.738281 248.453125 C 255.65625 249.773438 254.542969 251.0625 253.398438 252.328125 C 252.253906 253.589844 251.074219 254.828125 249.871094 256.03125 C 248.664062 257.238281 247.429688 258.414062 246.164062 259.5625 C 244.898438 260.707031 243.609375 261.820312 242.289062 262.902344 C 240.972656 263.984375 239.625 265.035156 238.257812 266.050781 C 236.886719 267.066406 235.492188 268.050781 234.074219 268.996094 C 232.65625 269.945312 231.214844 270.855469 229.75 271.734375 C 228.285156 272.609375 226.800781 273.453125 225.296875 274.257812 C 223.792969 275.058594 222.269531 275.828125 220.726562 276.554688 C 219.1875 277.285156 217.625 277.976562 216.050781 278.628906 C 214.476562 279.28125 212.882812 279.898438 211.277344 280.472656 C 209.671875 281.046875 208.050781 281.582031 206.417969 282.078125 C 204.785156 282.570312 203.140625 283.027344 201.488281 283.441406 C 199.832031 283.855469 198.167969 284.230469 196.496094 284.5625 C 194.820312 284.894531 193.140625 285.1875 191.453125 285.4375 C 189.765625 285.6875 188.074219 285.894531 186.375 286.0625 C 184.675781 286.230469 182.976562 286.355469 181.273438 286.441406 C 179.570312 286.523438 177.863281 286.566406 176.15625 286.566406 C 174.453125 286.566406 172.746094 286.523438 171.042969 286.441406 C 169.339844 286.355469 167.636719 286.230469 165.941406 286.0625 C 164.242188 285.894531 162.550781 285.6875 160.863281 285.4375 C 159.175781 285.1875 157.496094 284.894531 155.820312 284.5625 C 154.148438 284.230469 152.484375 283.855469 150.828125 283.441406 C 149.175781 283.027344 147.53125 282.570312 145.898438 282.078125 C 144.265625 281.582031 142.644531 281.046875 141.039062 280.472656 C 139.433594 279.898438 137.84375 279.28125 136.265625 278.628906 C 134.691406 277.976562 133.128906 277.285156 131.589844 276.554688 C 130.046875 275.828125 128.523438 275.058594 127.019531 274.257812 C 125.511719 273.453125 124.03125 272.609375 122.566406 271.734375 C 121.101562 270.855469 119.660156 269.945312 118.242188 268.996094 C 116.824219 268.050781 115.429688 267.066406 114.058594 266.050781 C 112.691406 265.035156 111.34375 263.984375 110.027344 262.902344 C 108.707031 261.820312 107.417969 260.707031 106.152344 259.5625 C 104.886719 258.414062 103.652344 257.238281 102.445312 256.03125 C 101.238281 254.828125 100.0625 253.589844 98.917969 252.328125 C 97.773438 251.0625 96.660156 249.773438 95.578125 248.453125 C 94.492188 247.132812 93.445312 245.789062 92.429688 244.417969 C 91.414062 243.050781 90.429688 241.65625 89.484375 240.234375 C 88.535156 238.816406 87.621094 237.375 86.746094 235.914062 C 85.867188 234.449219 85.027344 232.964844 84.222656 231.460938 C 83.417969 229.957031 82.652344 228.433594 81.921875 226.890625 C 81.195312 225.347656 80.503906 223.789062 79.847656 222.214844 C 79.195312 220.636719 78.582031 219.046875 78.007812 217.441406 C 77.433594 215.832031 76.898438 214.214844 76.402344 212.582031 C 75.90625 210.949219 75.453125 209.304688 75.039062 207.648438 C 74.625 205.996094 74.25 204.332031 73.917969 202.65625 C 73.585938 200.984375 73.292969 199.304688 73.042969 197.617188 C 72.792969 195.929688 72.582031 194.238281 72.414062 192.539062 C 72.25 190.839844 72.125 189.140625 72.039062 187.4375 C 71.957031 185.730469 71.914062 184.027344 71.914062 182.320312 C 71.914062 180.613281 71.957031 178.910156 72.039062 177.207031 C 72.125 175.503906 72.25 173.800781 72.414062 172.105469 C 72.582031 170.40625 72.792969 168.714844 73.042969 167.027344 C 73.292969 165.339844 73.585938 163.65625 73.917969 161.984375 C 74.25 160.3125 74.625 158.648438 75.039062 156.992188 C 75.453125 155.335938 75.90625 153.695312 76.402344 152.0625 C 76.898438 150.429688 77.433594 148.808594 78.007812 147.203125 C 78.582031 145.597656 79.195312 144.003906 79.847656 142.429688 C 80.503906 140.851562 81.195312 139.292969 81.921875 137.75 C 82.652344 136.210938 83.417969 134.6875 84.222656 133.179688 C 85.027344 131.675781 85.867188 130.191406 86.746094 128.730469 C 87.621094 127.265625 88.535156 125.824219 89.484375 124.40625 C 90.429688 122.988281 91.414062 121.59375 92.429688 120.222656 C 93.445312 118.851562 94.492188 117.507812 95.578125 116.191406 C 96.660156 114.871094 97.773438 113.578125 98.917969 112.316406 C 100.0625 111.050781 101.238281 109.816406 102.445312 108.609375 C 103.652344 107.402344 104.886719 106.226562 106.152344 105.082031 C 107.417969 103.9375 108.707031 102.820312 110.027344 101.738281 C 111.34375 100.65625 112.691406 99.609375 114.058594 98.589844 C 115.429688 97.574219 116.824219 96.59375 118.242188 95.644531 C 119.660156 94.699219 121.101562 93.785156 122.566406 92.910156 C 124.03125 92.03125 125.511719 91.191406 127.019531 90.386719 C 128.523438 89.582031 130.046875 88.816406 131.589844 88.085938 C 133.128906 87.355469 134.691406 86.664062 136.265625 86.011719 C 137.84375 85.359375 139.433594 84.746094 141.039062 84.171875 C 142.644531 83.597656 144.265625 83.0625 145.898438 82.566406 C 147.53125 82.070312 149.175781 81.617188 150.828125 81.203125 C 152.484375 80.785156 154.148438 80.414062 155.820312 80.082031 C 157.496094 79.746094 159.175781 79.457031 160.863281 79.207031 C 162.550781 78.957031 164.242188 78.746094 165.941406 78.578125 C 167.636719 78.414062 169.339844 78.285156 171.042969 78.203125 C 172.746094 78.121094 174.453125 78.078125 176.15625 78.078125 C 177.863281 78.078125 179.570312 78.121094 181.273438 78.203125 C 182.976562 78.285156 184.675781 78.414062 186.375 78.578125 C 188.074219 78.746094 189.765625 78.957031 191.453125 79.207031 C 193.140625 79.457031 194.820312 79.746094 196.496094 80.082031 C 198.167969 80.414062 199.832031 80.785156 201.488281 81.203125 C 203.140625 81.617188 204.785156 82.070312 206.417969 82.566406 C 208.050781 83.0625 209.671875 83.597656 211.277344 84.171875 C 212.882812 84.746094 214.476562 85.359375 216.050781 86.011719 C 217.625 86.664062 219.1875 87.355469 220.726562 88.085938 C 222.269531 88.816406 223.792969 89.582031 225.296875 90.386719 C 226.800781 91.191406 228.285156 92.03125 229.75 92.910156 C 231.214844 93.785156 232.65625 94.699219 234.074219 95.644531 C 235.492188 96.59375 236.886719 97.574219 238.257812 98.589844 C 239.625 99.609375 240.972656 100.65625 242.289062 101.738281 C 243.609375 102.820312 244.898438 103.9375 246.164062 105.082031 C 247.425781 106.226562 248.664062 107.402344 249.871094 108.609375 C 251.074219 109.816406 252.253906 111.050781 253.398438 112.316406 C 254.542969 113.578125 255.65625 114.871094 256.738281 116.191406 C 257.824219 117.507812 258.871094 118.851562 259.886719 120.222656 C 260.902344 121.59375 261.886719 122.988281 262.832031 124.40625 C 263.78125 125.824219 264.695312 127.265625 265.570312 128.730469 C 266.449219 130.191406 267.289062 131.675781 268.09375 133.179688 C 268.898438 134.6875 269.664062 136.210938 270.394531 137.75 C 271.121094 139.292969 271.8125 140.851562 272.46875 142.429688 C 273.121094 144.003906 273.734375 145.597656 274.308594 147.203125 C 274.882812 148.808594 275.417969 150.429688 275.914062 152.0625 C 276.410156 153.695312 276.863281 155.335938 277.277344 156.992188 C 277.691406 158.648438 278.066406 160.3125 278.398438 161.984375 C 278.730469 163.65625 279.023438 165.339844 279.273438 167.027344 C 279.523438 168.714844 279.734375 170.40625 279.898438 172.105469 C 280.066406 173.800781 280.191406 175.503906 280.277344 177.207031 C 280.359375 178.910156 280.402344 180.613281 280.402344 182.320312 Z M 280.402344 182.320312 "/></g><path style=" stroke:none;fill-rule:evenodd;fill:#cf83ce;fill-opacity:1;" d="M 205.742188 82.332031 C 245.929688 94.21875 276.023438 129.695312 279.972656 172.679688 C 274.535156 172.265625 268.96875 170.492188 263.707031 167.28125 C 252.429688 160.382812 255.28125 147.007812 247.320312 137.835938 C 242.691406 132.507812 236.09375 128.898438 230.144531 125.304688 C 212.488281 114.65625 207.226562 101.863281 205.742188 82.332031 Z M 205.742188 82.332031 "/><g clip-rule="nonzero" clip-path="url(#2930171465)"><path style=" stroke:none;fill-rule:evenodd;fill:#cf83ce;fill-opacity:1;" d="M 114.828125 98.035156 C 123.847656 106.078125 119.871094 119.242188 133.023438 127.492188 C 150.15625 138.25 174.175781 135.796875 188.125 152.1875 C 197.917969 163.699219 183.621094 176.535156 181.695312 188.558594 C 179.351562 203.089844 191.167969 228.046875 182.960938 240.191406 C 176.378906 249.929688 150.167969 255.136719 139.757812 261.128906 C 134.769531 264.003906 130.363281 268.855469 125.859375 273.632812 C 93.714844 255.867188 71.925781 221.628906 71.925781 182.320312 C 71.914062 147.699219 88.828125 117 114.828125 98.035156 Z M 114.828125 98.035156 "/></g><path style=" stroke:none;fill-rule:evenodd;fill:#8d71c1;fill-opacity:1;" d="M 101.054688 164.761719 C 94.183594 162.804688 83.648438 170.351562 82.035156 180.917969 C 81.527344 184.222656 82.214844 197.925781 82.667969 201.039062 C 83.414062 206.132812 90.769531 213.296875 93.09375 217.261719 C 98.757812 226.875 121.867188 219.339844 128.449219 217.398438 C 135.996094 215.183594 144.644531 211.410156 141.824219 195.199219 C 140.238281 186.109375 134.867188 186.632812 131.960938 181.90625 C 129.964844 178.671875 112.898438 180.613281 112.417969 176.757812 C 111.675781 170.917969 107.597656 169.003906 103.851562 166.015625 Z M 101.054688 164.761719 "/><path style=" stroke:none;fill-rule:evenodd;fill:#8d71c1;fill-opacity:1;" d="M 138.339844 220.84375 C 131.078125 229.628906 147.125 247.753906 157.46875 238.679688 C 169.90625 227.742188 151.269531 212.027344 140.199219 219.039062 Z M 138.339844 220.84375 "/><path style=" stroke:none;fill-rule:evenodd;fill:#8d71c1;fill-opacity:1;" d="M 145.996094 147.753906 C 140.722656 154.347656 151.492188 167.199219 158.929688 160.3125 C 167.878906 152.023438 155.238281 140.988281 147.34375 146.375 Z M 145.996094 147.753906 "/><path style=" stroke:none;fill-rule:evenodd;fill:#8d71c1;fill-opacity:1;" d="M 159.121094 95.554688 C 147.757812 108.597656 176.089844 138.125 192.558594 124.902344 C 212.394531 108.96875 179.957031 82.953125 162.066406 92.898438 Z M 159.121094 95.554688 "/><path style=" stroke:none;fill-rule:evenodd;fill:#8d71c1;fill-opacity:1;" d="M 201.125 157.929688 C 200.203125 160.753906 198.289062 185.640625 201.554688 187.707031 C 203.359375 188.847656 213.261719 194.8125 219.003906 193.847656 C 225.890625 192.707031 239.550781 188.671875 242.828125 182.816406 C 245.0625 178.851562 244.949219 170.4375 243.464844 163.261719 C 242.570312 158.921875 232.402344 157.433594 229.636719 155.191406 C 223.246094 149.996094 207.738281 149.472656 202.132812 155.917969 Z M 201.125 157.929688 "/><path style=" stroke:none;fill-rule:evenodd;fill:#8d71c1;fill-opacity:1;" d="M 206.621094 217.949219 C 209.019531 227.066406 227.074219 226.40625 225.792969 215.210938 C 224.25 201.726562 206.609375 205.253906 206.277344 215.84375 Z M 206.621094 217.949219 "/><path style=" stroke:none;fill-rule:evenodd;fill:#8d71c1;fill-opacity:1;" d="M 265.429688 128.472656 C 270.375 136.652344 274.230469 145.5625 276.792969 155.011719 C 270.15625 153.605469 264.300781 149.570312 262.566406 142.960938 L 261.890625 138.746094 C 262 134.777344 263.335938 131.320312 265.429688 128.472656 Z M 265.429688 128.472656 "/><path style=" stroke:none;fill-rule:evenodd;fill:#8d71c1;fill-opacity:1;" d="M 223.949219 274.984375 L 223.632812 273.027344 C 224.058594 259.144531 239.34375 251.335938 250.734375 255.148438 C 242.953125 263.109375 233.90625 269.816406 223.949219 274.984375 Z M 223.949219 274.984375 "/><g clip-rule="nonzero" clip-path="url(#225c4058e8)"><path style=" stroke:none;fill-rule:evenodd;fill:#8d71c1;fill-opacity:1;" d="M 275.527344 213.914062 C 264.960938 213.035156 254.300781 207.222656 256.148438 200.238281 L 257.277344 197.582031 C 261.628906 191.878906 271.53125 189.910156 280.042969 191.09375 C 279.382812 198.984375 277.851562 206.628906 275.527344 213.914062 Z M 275.527344 213.914062 "/></g><g clip-rule="nonzero" clip-path="url(#681b55525b)"><g clip-rule="nonzero" clip-path="url(#4f95ea301f)"><g clip-rule="nonzero" clip-path="url(#22dbd3a318)"><path style=" stroke:none;fill-rule:nonzero;fill:#c1ff72;fill-opacity:1;" d="M 77.765625 274.953125 L 77.847656 275.296875 C 82.078125 286.6875 95.335938 287.699219 117.613281 278.332031 C 138.230469 269.296875 159.558594 252.972656 181.597656 229.363281 C 243.199219 157.542969 271.765625 104.765625 267.300781 71.023438 C 262.675781 53.753906 246.132812 59.265625 217.679688 87.554688 C 238.082031 70.695312 251.617188 62.785156 258.285156 63.824219 C 265.195312 65.476562 266.226562 76.089844 261.386719 95.660156 C 250.105469 130.351562 222.070312 173.675781 177.289062 225.632812 C 150.785156 254.054688 125.679688 272 101.980469 279.472656 C 90.65625 282.066406 83.605469 280.851562 80.824219 275.835938 C 78.410156 266.261719 81.15625 256.691406 89.070312 247.125 C 79.847656 256.242188 76.082031 265.519531 77.765625 274.953125 "/></g></g></g><g clip-rule="nonzero" clip-path="url(#146cf86cbf)"><g clip-rule="nonzero" clip-path="url(#5bedc09016)"><path style=" stroke:none;fill-rule:nonzero;fill:#ffde59;fill-opacity:1;" d="M 72.265625 137.015625 L 72.265625 187.277344 L 280.140625 187.277344 L 280.140625 137.015625 Z M 72.265625 137.015625 "/></g></g><g clip-rule="nonzero" clip-path="url(#68c6fb0e10)"><g clip-rule="nonzero" clip-path="url(#34abd7b972)"><path style=" stroke:none;fill-rule:nonzero;fill:#ffde59;fill-opacity:1;" d="M 72.195312 188.175781 L 72.195312 224.160156 L 280.210938 224.160156 L 280.210938 188.175781 Z M 72.195312 188.175781 "/></g></g></g></svg>